<svg xmlns="http://www.w3.org/2000/svg" viewBox="0 0 640 420" role="img" aria-label="Northern Pike">
  <defs>
    <linearGradient id="water" x1="0" x2="1" y1="0" y2="1">
      <stop offset="0" stop-color="#0b3b4b"/>
      <stop offset=".6" stop-color="#0f2b35"/>
      <stop offset="1" stop-color="#07131f"/>
    </linearGradient>
    <linearGradient id="fish" x1="0" x2="1">
      <stop offset="0" stop-color="#b8c98b"/>
      <stop offset=".55" stop-color="#5f7c3d"/>
      <stop offset="1" stop-color="#233f28"/>
    </linearGradient>
  </defs>
  <rect width="640" height="420" fill="url(#water)"/>
  <path d="M0 92 C150 122 290 68 640 108 L640 0 L0 0 Z" fill="#7dd3fc" opacity=".08"/>
  <path d="M58 188 C170 116 342 128 492 182 C550 202 590 200 620 180 C595 226 552 250 492 252 C328 258 172 238 58 188 Z" fill="url(#fish)"/>
  <path d="M500 176 L622 112 C600 168 600 212 624 270 L502 228 Z" fill="#45622e"/>
  <circle cx="111" cy="179" r="8" fill="#06131b"/>
  <path d="M156 190 C242 216 372 218 482 202" fill="none" stroke="#1e331f" stroke-width="7" opacity=".65"/>
  <g fill="#dbe7b4" opacity=".55">
    <ellipse cx="238" cy="172" rx="18" ry="7"/><ellipse cx="318" cy="190" rx="20" ry="8"/>
    <ellipse cx="402" cy="172" rx="17" ry="7"/><ellipse cx="282" cy="224" rx="16" ry="6"/>
  </g>
</svg>
